<mxfile host="app.diagrams.net" agent="Mozilla/5.0 (Windows NT 10.0; Win64; x64) AppleWebKit/537.36 (KHTML, like Gecko) Chrome/131.0.0.0 Safari/537.36 Edg/131.0.0.0" version="25.0.1">
  <diagram name="Page-1" id="g-3GzaDL04Rqgh80giuX">
    <mxGraphModel dx="2406" dy="1951" grid="1" gridSize="10" guides="1" tooltips="1" connect="1" arrows="1" fold="1" page="1" pageScale="1" pageWidth="850" pageHeight="1100" math="0" shadow="0">
      <root>
        <mxCell id="0" />
        <mxCell id="1" parent="0" />
        <mxCell id="1bYxl1nzNA8m9NP_iSmE-1" value="Insert new clock" style="" vertex="1" parent="1">
          <mxGeometry x="-55.000000000000455" y="-220" width="110" height="50" as="geometry" />
        </mxCell>
        <mxCell id="1bYxl1nzNA8m9NP_iSmE-2" value="Initialize Route" style="" vertex="1" parent="1">
          <mxGeometry x="-55.000000000000455" y="-110" width="110" height="50" as="geometry" />
        </mxCell>
        <mxCell id="1bYxl1nzNA8m9NP_iSmE-3" value="" style="endArrow=open;strokeColor=#000000;endFill=1;rounded=0" edge="1" parent="1" source="1bYxl1nzNA8m9NP_iSmE-1" target="1bYxl1nzNA8m9NP_iSmE-2">
          <mxGeometry relative="1" as="geometry" />
        </mxCell>
        <mxCell id="1bYxl1nzNA8m9NP_iSmE-13" value="" style="edgeStyle=orthogonalEdgeStyle;rounded=0;orthogonalLoop=1;jettySize=auto;html=1;" edge="1" parent="1" source="1bYxl1nzNA8m9NP_iSmE-4" target="1bYxl1nzNA8m9NP_iSmE-12">
          <mxGeometry relative="1" as="geometry" />
        </mxCell>
        <mxCell id="1bYxl1nzNA8m9NP_iSmE-4" value="Optimize Route" style="" vertex="1" parent="1">
          <mxGeometry x="-55.000000000000455" y="-5" width="110" height="50" as="geometry" />
        </mxCell>
        <mxCell id="1bYxl1nzNA8m9NP_iSmE-5" value="" style="endArrow=open;strokeColor=#000000;endFill=1;rounded=0" edge="1" parent="1" target="1bYxl1nzNA8m9NP_iSmE-4">
          <mxGeometry relative="1" as="geometry">
            <mxPoint y="-60" as="sourcePoint" />
          </mxGeometry>
        </mxCell>
        <mxCell id="1bYxl1nzNA8m9NP_iSmE-6" value="" style="edgeStyle=orthogonalEdgeStyle;rounded=0;orthogonalLoop=1;jettySize=auto;html=1;entryX=0.5;entryY=0;entryDx=0;entryDy=0;endArrow=open;endFill=0;strokeColor=#000000;" edge="1" parent="1" source="1bYxl1nzNA8m9NP_iSmE-7" target="1bYxl1nzNA8m9NP_iSmE-1">
          <mxGeometry relative="1" as="geometry">
            <mxPoint x="-4.547473508864641e-13" y="-210" as="targetPoint" />
          </mxGeometry>
        </mxCell>
        <mxCell id="1bYxl1nzNA8m9NP_iSmE-7" value="" style="ellipse;whiteSpace=wrap;html=1;aspect=fixed;" vertex="1" parent="1">
          <mxGeometry x="-15" y="-290" width="30" height="30" as="geometry" />
        </mxCell>
        <mxCell id="1bYxl1nzNA8m9NP_iSmE-9" value="" style="ellipse;whiteSpace=wrap;html=1;aspect=fixed;" vertex="1" parent="1">
          <mxGeometry x="-15" y="210" width="30" height="30" as="geometry" />
        </mxCell>
        <mxCell id="1bYxl1nzNA8m9NP_iSmE-14" value="" style="edgeStyle=orthogonalEdgeStyle;rounded=0;orthogonalLoop=1;jettySize=auto;html=1;" edge="1" parent="1" source="1bYxl1nzNA8m9NP_iSmE-12" target="1bYxl1nzNA8m9NP_iSmE-9">
          <mxGeometry relative="1" as="geometry" />
        </mxCell>
        <mxCell id="1bYxl1nzNA8m9NP_iSmE-12" value="Start clock" style="" vertex="1" parent="1">
          <mxGeometry x="-55.000000000000455" y="100" width="110" height="50" as="geometry" />
        </mxCell>
      </root>
    </mxGraphModel>
  </diagram>
</mxfile>
